<svg width="512" height="512" viewBox="0 0 512 512" fill="none" xmlns="http://www.w3.org/2000/svg">
<rect width="512" height="512" fill="#0F0F0F"/>
<path d="M365.786 182.023C359.393 182.023 353.27 183.184 347.603 185.306C337.452 175.718 325.012 169.721 310.5 169.721C301.562 169.721 293.269 172.199 285.906 176.193L294.444 123.182C294.922 120.204 295.154 117.243 295.154 114.318C295.154 86.5781 272.955 59 239.799 59C213.17 59 189.65 78.3439 185.258 105.545L182.575 122.223L179.12 114.957C169.598 95.1598 149.887 83.6042 129.293 83.6042C97.9648 83.6042 74 109.191 74 139.014C74 147.071 75.763 155.244 79.4856 162.986L117.806 242.684C99.0629 251.525 86.2857 270.977 86.2857 292.043V353.549C86.2857 370.51 94.2714 386.855 107.655 397.265L142.938 424.743C165.475 442.296 193.601 451.968 222.181 451.968L282.696 451.995C357.262 452.652 418 391.222 418 317.184V234.534C418 204.78 393.352 182.023 365.786 182.023ZM295.143 222.233C295.143 213.622 301.363 206.625 310.5 206.625C318.962 206.625 325.857 213.605 325.857 222.194V264.864C325.857 273.437 318.946 280.433 310.5 280.433C301.363 280.433 295.143 273.437 295.143 264.903V222.233ZM239.78 95.8979C249.033 95.8979 258.309 103.21 258.309 114.334C258.309 115.316 258.23 116.31 258.068 117.311L240.164 228.537C234.252 226.307 227.879 224.385 221.352 224.385C217.916 224.385 214.466 224.708 211.078 225.349L202.977 226.6L221.651 110.737C223.118 102.387 230.95 95.8979 239.78 95.8979ZM110.166 138.968C110.166 128.765 118.451 120.485 128.61 120.485C135.472 120.485 142.047 124.347 145.203 130.949L192.265 228.821L154.855 234.688L112.685 146.964C111.441 144.427 110.166 141.659 110.166 138.968ZM282.704 415.748L222.189 415.721C201.794 415.721 181.707 408.814 165.605 396.269L130.307 368.784C125.807 365.313 123.143 359.854 123.143 353.549V292.043C123.143 283.409 129.262 275.813 136.649 274.19L217.505 261.712C218.818 262.135 220.123 261.289 221.352 261.289C230.497 261.289 239.849 268.609 239.849 279.787C239.849 288.275 234.081 295.895 226.665 297.54L182.114 304.267C172.877 305.523 166.158 313.432 166.158 322.527C166.158 338.065 180.609 341.04 184.356 341.04C186.387 341.04 233.968 334.414 234.682 334.255C252.765 330.236 266.556 317.164 272.867 300.703C282.32 310.802 295.604 317.337 310.5 317.337C316.893 317.337 323.024 316.176 328.691 314.054C338.143 323.642 351.273 329.639 365.786 329.639C365.939 329.639 373.526 329.296 380.106 327.394C374.923 376.922 333.459 415.748 282.704 415.748ZM381.143 277.204C381.143 285.738 374.232 292.735 365.786 292.735C357.324 292.735 350.429 285.755 350.429 277.166V234.495C350.429 225.923 356.648 218.927 365.786 218.927C374.247 218.927 381.143 225.906 381.143 234.495V277.204Z" fill="white"/>
</svg>
